<svg viewBox="0 0 50 50" xmlns="http://www.w3.org/2000/svg" xmlns:xlink="http://www.w3.org/1999/xlink" version="1.1"><g transform="translate(25 25) scale(1.4285714285714286)" id="lockup4-icon"><g fill="#232323"><g transform="translate(-17.5 -17.5) scale(0.35)" id="container"><g fill="#232323"><rect vector-effect="non-scaling-stroke" x="1" y="1" width="98" height="98" rx="10"></rect></g></g><g transform="translate(-16.225805916324738 -16.229032258064514) scale(0.3225806451612903)" id="icon"><g fill="#FFFFFF"><path d="M28 40v9l-.8.16A9 9 0 0 0 20 58v8a9 9 0 0 0 9 9h17.49l.26.6A9 9 0 0 0 55 81h8a9 9 0 0 0 9-9V55l.8-.16A9 9 0 0 0 80 46V28a9 9 0 0 0-9-9H55a9 9 0 0 0-9 9v3h-9a9 9 0 0 0-9 9zm24-12a3 3 0 0 1 3-3h16a3 3 0 0 1 3 3v18a3 3 0 0 1-3 3H52zm0 27h14v17a3 3 0 0 1-3 3h-8a3 3 0 0 1-3-3zm-6 14H29a3 3 0 0 1-3-3v-8a3 3 0 0 1 3-3h17zm0-20H34v-9a3 3 0 0 1 3-3h9z"></path></g></g></g></g></svg>