<svg viewBox="0 0 50 50" xmlns="http://www.w3.org/2000/svg" xmlns:xlink="http://www.w3.org/1999/xlink" version="1.1" class="jsx-2263963463 artboard-inner" style="width: 270px; height: 270px; max-height: 100%;"><g transform="translate(25 25) scale(1.4285714285714286)" id="lockup4-icon"><g fill="#232323"><g transform="translate(-17.5 -17.5) scale(0.3431372549019608)" id="container"><g fill="#232323"><circle vector-effect="non-scaling-stroke" cx="51" cy="51" r="50"></circle></g></g><g transform="translate(-12.538833303594085 -13.150746743243683) scale(0.26975658477362874)" id="icon"><g fill="#FFFFFF"><path d="M13.88 67.466l-.002.002C29.506 83 54.765 82.974 70.356 67.382c15.59-15.591 15.618-40.851.085-56.479l-.002.002c7.722 7.818 7.697 20.411-.084 28.192-7.78 7.781-20.374 7.806-28.191.083l-.009.009c-.03-.03-.054-.063-.084-.093-7.811-7.811-20.474-7.811-28.284 0-7.811 7.811-7.811 20.474 0 28.285.03.03.063.055.093.085zm6.978-21.297a9.998 9.998 0 0 1 14.142 0c3.905 3.904 3.906 10.236 0 14.142-3.906 3.906-10.238 3.905-14.143 0-3.904-3.907-3.904-10.237.001-14.142z"></path><circle cx="56.39" cy="24.778" r="10"></circle></g></g></g></g></svg>