<svg viewBox="0 -56.00000000000001 350.8951406649616 100" xmlns="http://www.w3.org/2000/svg" xmlns:xlink="http://www.w3.org/1999/xlink" version="1.1" class="jsx-2263963463 artboard-inner" style="width: 303px; height: 86.3506px; max-height: 100%;"><g transform="translate(-5.115089514066495 42.84910485933501) scale(1.7760727479397551)" fill="#FFFFFF"><g id="line1"><path d="M58.968-50.760C58.296-52.056 56.436-52.704 53.388-52.704C50.340-52.704 48.408-52.056 47.592-50.760C44.856-47.304 39.408-40.176 31.248-29.376L14.904-50.832L14.472-51.264C14.184-51.600 13.572-51.924 12.636-52.236C11.700-52.548 10.584-52.704 9.288-52.704C6.264-52.704 4.392-52.080 3.672-50.832C3.288-50.112 3.060-49.476 2.988-48.924C2.916-48.372 2.880-47.544 2.880-46.440L2.880-6.480C2.880-5.328 2.916-4.464 2.988-3.888C3.060-3.312 3.288-2.688 3.672-2.016C4.392-0.720 6.216-0.072 9.144-0.072C12.168-0.072 14.040-0.720 14.760-2.016C15.144-2.688 15.372-3.300 15.444-3.852C15.516-4.404 15.552-5.232 15.552-6.336L15.552-30.600C15.792-30.312 17.328-28.212 20.160-24.300C22.992-20.388 24.888-17.832 25.848-16.632L26.424-15.840C26.808-15.360 27.444-14.868 28.332-14.364C29.220-13.860 30.204-13.608 31.284-13.608C32.364-13.608 33.372-13.884 34.308-14.436C35.244-14.988 35.832-15.420 36.072-15.732C36.312-16.044 36.744-16.608 37.368-17.424C37.992-18.240 39.456-20.268 41.760-23.508C44.064-26.748 45.816-29.112 47.016-30.600L47.016-6.480C47.016-4.800 47.136-3.552 47.376-2.736C47.616-2.112 47.952-1.632 48.384-1.296C48.816-0.960 49.440-0.672 50.256-0.432C51.072-0.192 52.176-0.072 53.568-0.072C54.960-0.072 56.112-0.216 57.024-0.504C58.848-1.080 59.760-3.024 59.760-6.336L59.760-46.296C59.760-47.400 59.724-48.240 59.652-48.816C59.580-49.392 59.352-50.040 58.968-50.760Z"></path><path d="M63.360-31.608L63.360-6.336C63.360-5.184 63.396-4.344 63.468-3.816C63.540-3.288 63.744-2.664 64.080-1.944C64.752-0.648 66.600 0 69.624 0C72.696 0 74.544-0.624 75.168-1.872C75.552-2.592 75.780-3.228 75.852-3.780C75.924-4.332 75.960-5.160 75.960-6.264L75.960-31.464C75.960-32.376 75.936-33.072 75.888-33.552C75.840-34.944 75.408-35.976 74.592-36.648C73.632-37.464 72-37.872 69.696-37.872C66.624-37.872 64.752-37.248 64.080-36.000C63.744-35.280 63.540-34.644 63.468-34.092C63.396-33.540 63.360-32.712 63.360-31.608ZM73.296-43.488C74.208-43.776 74.844-44.268 75.204-44.964C75.564-45.660 75.780-46.284 75.852-46.836C75.924-47.388 75.960-48.216 75.960-49.320C75.960-50.424 75.924-51.252 75.852-51.804C75.780-52.356 75.552-52.992 75.168-53.712C74.544-55.008 72.720-55.656 69.696-55.656C66.624-55.656 64.752-55.008 64.080-53.712C63.744-53.040 63.540-52.428 63.468-51.876C63.396-51.324 63.360-50.496 63.360-49.392C63.360-48.288 63.396-47.460 63.468-46.908C63.540-46.356 63.756-45.720 64.116-45.000C64.476-44.280 65.112-43.776 66.024-43.488C66.936-43.200 68.148-43.056 69.660-43.056C71.172-43.056 72.384-43.200 73.296-43.488Z"></path><path d="M100.656-37.944C98.688-37.944 96.888-37.392 95.256-36.288C94.632-35.904 93.984-35.400 93.312-34.776C92.640-34.152 92.208-33.672 92.016-33.336C92.016-34.488 91.776-35.472 91.296-36.288C90.624-37.392 88.824-37.944 85.896-37.944C82.872-37.944 81.024-37.344 80.352-36.144C79.968-35.472 79.740-34.860 79.668-34.308C79.596-33.756 79.560-32.952 79.560-31.896L79.560-6.408C79.560-5.304 79.596-4.476 79.668-3.924C79.740-3.372 79.944-2.736 80.280-2.016C80.952-0.720 82.800-0.072 85.824-0.072C88.896-0.072 90.744-0.720 91.368-2.016C91.752-2.688 91.980-3.300 92.052-3.852C92.124-4.404 92.160-5.232 92.160-6.336L92.160-19.080C92.160-20.952 92.748-22.464 93.924-23.616C95.100-24.768 96.636-25.344 98.532-25.344C100.428-25.344 101.940-24.792 103.068-23.688C104.196-22.584 104.760-21.048 104.760-19.080L104.760-6.408C104.760-4.776 104.904-3.552 105.192-2.736C105.720-0.960 107.688-0.072 111.096-0.072C114.168-0.072 116.040-0.720 116.712-2.016C117.048-2.688 117.252-3.300 117.324-3.852C117.396-4.404 117.432-5.232 117.432-6.336L117.432-19.008C117.432-24.288 115.836-28.764 112.644-32.436C109.452-36.108 105.456-37.944 100.656-37.944Z"></path><path d="M148.392-55.224C147.480-54.936 146.844-54.444 146.484-53.748C146.124-53.052 145.908-52.428 145.836-51.876C145.764-51.324 145.728-50.496 145.728-49.392L145.728-34.272C143.760-36.672 141.000-37.872 137.448-37.872C133.176-37.872 129.252-35.976 125.676-32.184C122.100-28.392 120.312-23.988 120.312-18.972C120.312-13.956 122.088-9.564 125.640-5.796C129.192-2.028 133.128-0.144 137.448-0.144C141.048-0.144 143.856-1.296 145.872-3.600C146.256-1.248 148.116-0.072 151.452-0.072C154.788-0.072 156.816-0.720 157.536-2.016C157.920-2.688 158.148-3.300 158.220-3.852C158.292-4.404 158.328-5.232 158.328-6.336L158.328-49.320C158.328-50.424 158.292-51.252 158.220-51.804C158.148-52.356 157.932-52.992 157.572-53.712C157.212-54.432 156.576-54.936 155.664-55.224C154.752-55.512 153.540-55.656 152.028-55.656C150.516-55.656 149.304-55.512 148.392-55.224ZM139.320-12.672C137.544-12.672 136.032-13.320 134.784-14.616C133.536-15.912 132.912-17.352 132.912-18.936C132.912-20.520 133.488-21.972 134.640-23.292C135.792-24.612 137.328-25.272 139.248-25.272C141.168-25.272 142.692-24.600 143.820-23.256C144.948-21.912 145.512-20.460 145.512-18.900C145.512-17.340 144.924-15.912 143.748-14.616C142.572-13.320 141.096-12.672 139.320-12.672Z"></path><path d="M166.896-33.192C162.864-29.448 160.848-24.696 160.848-18.936C160.848-15.096 161.868-11.652 163.908-8.604C165.948-5.556 168.456-3.252 171.432-1.692C174.408-0.132 177.480 0.648 180.648 0.648C183.816 0.648 186.876-0.084 189.828-1.548C192.780-3.012 195.288-5.292 197.352-8.388C199.416-11.484 200.448-15.024 200.448-19.008C200.448-24.768 198.456-29.508 194.472-33.228C190.488-36.948 185.904-38.808 180.720-38.808C175.536-38.808 170.928-36.936 166.896-33.192ZM180.576-12.024C178.992-12.024 177.432-12.612 175.896-13.788C174.360-14.964 173.592-16.716 173.592-19.044C173.592-21.372 174.336-23.136 175.824-24.336C177.312-25.536 178.920-26.136 180.648-26.136C182.376-26.136 183.984-25.560 185.472-24.408C186.960-23.256 187.704-21.504 187.704-19.152C187.704-16.800 186.912-15.024 185.328-13.824C183.744-12.624 182.160-12.024 180.576-12.024Z"></path></g></g></svg>